HIERARCHY
ROOT hip
{
	OFFSET 0.000000 0.000000 0.000000 
	CHANNELS 6 Xposition Yposition Zposition Xrotation Zrotation Yrotation
	JOINT abdomen
	{
		OFFSET 0.000000 3.402643 0.000000 
		CHANNELS 3 Xrotation Zrotation Yrotation
		JOINT chest
		{
			OFFSET 0.000000 8.438565 -0.680529 
			CHANNELS 3 Xrotation Zrotation Yrotation
			JOINT neck
			{
				OFFSET 0.000000 10.207942 -0.272212 
				CHANNELS 3 Xrotation Zrotation Yrotation
				JOINT head
				{
					OFFSET 0.000000 3.130431 0.000000 
					CHANNELS 3 Xrotation Zrotation Yrotation
					End Site
					{
						OFFSET 0.000000 3.130435 0.000000 
					}
				}
			}
			JOINT lCollar
			{
				OFFSET 3.470700 6.669187 -0.816635 
				CHANNELS 3 Yrotation Zrotation Xrotation
				JOINT lShldr
				{
					OFFSET 3.198488 0.000000 0.000000 
					CHANNELS 3 Zrotation Yrotation Xrotation
					JOINT lForeArm
					{
						OFFSET 10.139888 0.000000 0.000000 
						CHANNELS 3 Yrotation Zrotation Xrotation
						JOINT lHand
						{
							OFFSET 8.370511 0.000000 0.000000 
							CHANNELS 3 Zrotation Yrotation Xrotation
							End Site
							{
								OFFSET 4.083176 0.000000 0.000000 
							}
						}
					}
				}
			}
			JOINT rCollar
			{
				OFFSET -3.470700 6.669187 -0.816635 
				CHANNELS 3 Yrotation Zrotation Xrotation
				JOINT rShldr
				{
					OFFSET -3.198488 0.000000 0.000000 
					CHANNELS 3 Zrotation Yrotation Xrotation
					JOINT rForeArm
					{
						OFFSET -10.139888 0.000000 0.000000 
						CHANNELS 3 Yrotation Zrotation Xrotation
						JOINT rHand
						{
							OFFSET -8.370511 0.000000 0.000000 
							CHANNELS 3 Zrotation Yrotation Xrotation
							End Site
							{
								OFFSET -4.083176 0.000000 0.000000 
							}
						}
					}
				}
			}
		}
	}
	JOINT lThigh
	{
		OFFSET 5.308129 -1.633274 1.361059 
		CHANNELS 3 Xrotation Zrotation Yrotation
		JOINT lShin
		{
			OFFSET -2.041588 -20.007561 0.000000 
			CHANNELS 3 Xrotation Zrotation Yrotation
			JOINT lFoot
			{
				OFFSET 0.000000 -19.190928 -1.224953 
				CHANNELS 3 Xrotation Yrotation Zrotation
				End Site
				{
					OFFSET 0.000000 -2.449906 4.627600 
				}
			}
		}
	}
	JOINT rThigh
	{
		OFFSET -5.308129 -1.633274 1.361059 
		CHANNELS 3 Xrotation Zrotation Yrotation
		JOINT rShin
		{
			OFFSET 2.041588 -20.007561 0.000000 
			CHANNELS 3 Xrotation Zrotation Yrotation
			JOINT rFoot
			{
				OFFSET 0.000000 -19.190928 -1.224953 
				CHANNELS 3 Xrotation Yrotation Zrotation
				End Site
				{
					OFFSET 0.000000 -2.449906 4.627600 
				}
			}
		}
	}
}
MOTION
Frames: 15
Frame Time: 0.033333
86.952423 51.214821 -86.779999 12.255860 8.583984 24.894037 46.674728 -25.531818 0.513278 -24.951172 1.074219 -4.951171 51.063168 8.107644 2.471410 -87.958984 2.988281 -45.380863 2.000000 -2.000000 0.000000 -85.214844 41.621098 -10.566405 -53.744110 -1.724656 -2.115921 11.183101 34.174854 11.402628 -2.000000 2.000000 0.000000 70.302734 11.171874 19.882811 123.250862 -1.851374 -2.861754 -6.776577 -35.884895 2.371424 -13.920415 7.983764 10.582289 26.010996 -4.780408 -2.413093 6.878705 4.587167 4.105842 17.941313 -2.703217 2.874835 13.374990 5.162174 1.380537 37.735939 -2.920765 1.077607 
88.770821 50.614529 -84.881538 11.416016 10.332031 22.150188 48.804951 -25.609776 -2.486083 -26.494143 3.212891 -4.511719 51.063168 8.107644 2.471410 -86.855469 3.486328 -42.743546 2.000000 -2.000000 0.000000 -78.261719 38.359375 -4.638672 -51.632496 -1.788351 -2.033978 10.032758 35.373951 7.373325 -2.000000 2.000000 0.000000 70.214844 7.441407 22.783203 118.335693 -1.429491 -3.052165 -8.839787 -36.574047 5.064755 -14.106883 6.949937 10.336293 26.361845 -4.760972 -2.438183 2.062642 1.695547 4.559591 14.222525 -2.049669 0.015553 26.068548 4.672182 2.404756 38.041985 -5.390400 -0.792458 
90.491531 49.615650 -82.948952 10.781250 12.089845 19.884855 51.272274 -25.141592 -5.931192 -28.203127 5.527344 -4.199219 51.063168 8.107644 2.471410 -85.292969 3.242187 -39.208992 2.000000 -2.000000 0.000000 -72.880859 32.050781 0.034481 -51.621170 -1.618636 -1.975427 9.398675 35.953934 4.495248 -2.000000 2.000000 0.000000 68.984375 1.015625 25.390799 111.659233 -1.267302 -3.150345 -11.162802 -37.612446 7.493732 -15.720778 5.497025 8.994471 32.156105 -4.503533 -2.865899 -1.728396 0.612917 4.391777 9.851281 -1.484025 -2.647603 39.978176 3.977161 3.404302 37.232964 -9.206867 -0.754176 
92.059158 48.003052 -81.064018 9.921875 13.164063 17.590115 53.504883 -24.120832 -9.197324 -29.941408 8.027345 -3.857421 51.063168 8.107644 2.471410 -84.091797 2.734375 -35.693359 2.000000 -2.000000 0.000000 -69.541016 20.937500 2.509765 -54.447601 -1.666729 -2.129079 9.913132 35.245827 4.279411 -2.000000 2.000000 0.000000 68.320313 -7.373047 25.311245 103.758751 -0.839459 -3.106044 -13.227503 -39.473660 10.322206 -15.226515 4.263724 8.607857 36.217564 -4.181489 -3.155368 -5.509436 -1.093824 4.662523 4.437968 -1.570580 -4.948410 52.110554 3.133584 3.911943 37.360149 -12.029354 -0.079410 
93.494392 47.453293 -79.366447 9.375000 13.505859 15.224607 55.189156 -22.337673 -12.002354 -31.328127 10.322266 -3.593750 51.063168 8.107644 2.471410 -83.867188 1.240234 -33.310543 2.000000 -2.000000 0.000000 -66.865234 6.875000 3.818359 -59.366863 -1.711302 -2.390790 10.611305 33.592529 5.568698 -2.000000 2.000000 0.000000 69.677734 -17.109379 18.378908 92.713631 0.017353 -3.036928 -15.743026 -42.831383 13.486242 -10.920914 3.043662 8.728416 36.208282 -4.294855 -3.131052 -16.450842 0.472186 2.637297 -3.686205 -2.290690 -6.411326 64.325729 2.099514 4.546272 38.236195 -13.827722 1.641525 
94.783722 47.438412 -77.752533 9.003906 12.656250 12.570498 56.214603 -19.940584 -13.577853 -32.392578 11.914063 -3.515625 51.063168 8.107644 2.471410 -84.208984 -0.644531 -31.367189 2.000000 -2.000000 0.000000 -65.107422 -5.644532 4.032242 -66.750046 -1.291521 -2.405429 10.231718 31.928398 5.365826 -2.000000 2.000000 0.000000 74.589844 -27.568361 6.499387 80.413643 0.543405 -2.830492 -17.808880 -47.204048 16.653662 -7.648662 2.515141 8.987178 35.536816 -4.659304 -3.252608 -20.834633 1.569463 1.690971 -14.743450 -3.261308 -7.029431 77.115120 1.093502 4.717464 39.158817 -14.874834 4.807358 
95.820778 47.767567 -75.938782 9.111328 11.093749 10.205079 55.938290 -15.200552 -13.232486 -33.105473 12.626954 -3.525390 51.063168 8.107644 2.471410 -84.824219 -2.773437 -26.904299 2.000000 -2.000000 0.000000 -65.634766 -15.849609 1.803975 -77.288216 -0.776822 -2.807081 7.995509 30.160719 3.485848 -2.000000 2.000000 0.000000 77.148438 -36.601563 0.683594 72.867966 1.008110 -2.578542 -17.580564 -50.042759 16.889620 -4.746180 2.490510 9.326926 33.088085 -4.963784 -2.964126 -21.154253 2.806051 0.574300 -23.983202 -4.003919 -6.507536 84.540779 0.938584 4.615619 37.664158 -14.872951 6.049819 
96.499359 48.301777 -73.641441 9.609375 9.003906 7.853090 54.788559 -7.866424 -11.461834 -33.105473 12.626954 -3.876952 51.063168 8.107644 2.471410 -85.634766 -4.716796 -19.140625 2.000000 -2.000000 0.000000 -66.933594 -23.906250 -3.177784 -90.108368 -0.285095 -3.099666 5.391428 28.025513 1.121382 -2.000000 2.000000 0.000000 72.568359 -45.107422 8.108316 73.740250 0.838848 -2.696065 -15.228385 -51.595161 15.349163 -0.262930 2.463574 10.038504 27.969349 -5.209797 -2.549098 -17.713732 3.363531 -0.396077 -29.564543 -3.299827 -6.585902 83.587921 0.507857 4.610183 32.235779 -13.085166 4.020866 
96.689354 48.482800 -70.663345 9.912109 6.923829 5.782427 53.655167 -0.560322 -9.583869 -33.105473 12.275391 -4.033203 51.063168 8.107644 2.471410 -85.937500 -5.400390 -11.240235 2.000000 -2.000000 0.000000 -66.171875 -28.789063 -6.728516 -100.630157 0.486631 -2.948826 3.878233 26.271479 -0.509057 -2.000000 2.000000 0.000000 62.246098 -52.919922 24.474628 78.303635 0.678764 -2.803107 -9.614308 -51.640907 9.954139 6.964924 2.625060 11.108047 17.456100 -5.567393 -1.612930 -12.230381 5.091980 5.258727 -33.367329 -1.601546 -5.757813 77.290710 1.103503 4.738400 24.699984 -10.447697 0.572020 
96.481400 48.224373 -67.196091 10.234375 5.185547 3.584867 52.651596 4.007921 -8.590046 -33.115234 11.748047 -4.343714 51.063168 8.107644 2.471410 -85.126953 -4.941405 -5.732422 2.000000 -2.000000 0.000000 -61.914059 -30.957033 -5.571429 -107.837547 0.768232 -2.984719 4.607537 24.164656 -1.552752 -2.000000 2.000000 0.000000 50.458984 -57.890629 43.761257 83.581001 0.501434 -2.950259 -4.870827 -51.343876 5.372428 17.049454 2.002263 12.272044 1.900724 -5.460751 -0.054582 -0.681122 6.770199 10.001018 -34.593323 -0.527786 -4.184746 69.079506 2.092695 4.954391 18.212856 -7.261130 -0.959702 
96.100105 47.958767 -63.540012 10.039063 4.306641 1.123780 52.156906 5.604665 -8.288980 -33.476563 11.044923 -4.384766 51.063168 8.107644 2.471410 -83.408203 -4.160156 -2.842506 2.000000 -2.000000 0.000000 -56.220703 -31.201176 -0.253905 -112.767235 0.596463 -3.248438 7.033263 22.184996 -2.300530 -2.000000 2.000000 0.000000 43.193363 -61.367188 56.446510 87.274391 0.359143 -3.026936 -2.119289 -50.808662 2.594909 25.074947 1.329257 14.053412 -10.754325 -5.333627 1.263557 19.131523 8.784686 14.019943 -34.226719 0.253526 -2.864537 59.982197 2.856278 4.628124 13.544886 -5.120817 -1.007733 
95.770218 49.727295 -59.994762 9.335938 4.150391 -1.240234 51.525169 6.191047 -8.550802 -33.828129 10.341797 -4.218750 51.063168 8.107644 2.471410 -81.533203 -4.726562 -1.220703 2.000000 -2.000000 0.000000 -54.345703 -29.755859 7.070313 -115.397972 0.871526 -3.059157 8.397554 20.739645 -2.444871 -2.000000 2.000000 0.000000 42.382813 -64.560547 57.207977 88.320366 0.321574 -2.716207 -1.224307 -50.827457 1.276464 28.339724 0.937612 15.926572 -14.812284 -5.286769 1.145400 42.579769 9.076656 16.214640 -31.873487 1.201271 -1.193572 48.699680 3.322609 3.928609 9.178262 -2.890491 -0.656498 
95.579742 53.330196 -56.603901 8.105469 4.345703 -3.417229 50.784634 5.887782 -8.915081 -34.375000 9.482423 -4.236672 51.063168 8.107644 2.471410 -79.394531 -5.976562 -0.557658 2.000000 -2.000000 0.000000 -57.675785 -26.894531 15.117186 -115.741501 1.248053 -2.807422 7.615737 20.763109 -2.384721 -2.000000 2.000000 0.000000 47.675781 -67.236328 49.571072 88.316078 0.137888 -2.922397 -1.847283 -51.120846 1.429185 29.052015 2.100116 16.938156 -6.324244 -5.392200 0.391660 45.860027 11.820927 16.441586 -28.806135 1.650360 0.036905 38.160187 4.112334 3.291873 5.421378 -2.086806 -0.146760 
95.431732 53.724052 -53.213608 6.699219 4.882813 -5.741356 50.131130 5.042554 -9.051719 -34.726563 8.593751 -4.218750 51.063168 8.107644 2.471410 -77.304688 -7.412108 -0.068359 2.000000 -2.000000 0.000000 -62.441406 -22.177734 22.027565 -114.353928 0.655146 -3.418058 7.062873 20.769136 -1.204436 -2.000000 2.000000 0.000000 57.324219 -69.111328 36.240875 87.801735 0.349394 -3.027500 -3.536337 -51.124157 2.321923 27.268099 3.898215 18.378675 9.659615 -5.358214 -1.044627 45.354576 12.911540 13.025174 -26.050369 1.826138 -0.053584 31.135582 4.435976 3.133465 1.649459 -1.532363 0.482649 
95.273308 53.638393 -49.828167 5.107422 5.410157 -8.309626 49.618374 3.991911 -8.857202 -34.736328 7.714845 -4.129548 51.063168 8.107644 2.471410 -75.810555 -8.291016 0.371094 2.000000 -2.000000 0.000000 -66.699219 -16.337891 27.753904 -111.877090 0.735769 -3.207606 5.781126 21.552736 -0.520835 -2.000000 2.000000 0.000000 69.326172 -69.287109 21.397116 87.098610 0.368893 -3.026372 -5.884625 -51.163345 3.846849 23.639427 6.494569 19.116016 29.432428 -5.136933 -2.620629 42.195477 13.419719 7.981001 -23.790472 1.620135 -2.255996 29.370186 4.841480 2.505166 -0.638707 -1.328795 0.565643 
